<svg version="1.1" xmlns="http://www.w3.org/2000/svg" xmlns:xlink="http://www.w3.org/1999/xlink" width="747.74775" height="465.46547" viewBox="0,0,747.74775,465.46547"><defs><linearGradient x1="311.30099" y1="-39.01041" x2="311.30099" y2="426.45506" gradientUnits="userSpaceOnUse" id="color-1"><stop offset="0" stop-color="#66e5ff"/><stop offset="1" stop-color="#7d66ff"/></linearGradient></defs><g transform="translate(62.5729,39.01041)"><g data-paper-data="{&quot;isPaintingLayer&quot;:true}" fill-rule="nonzero" stroke="none" stroke-linecap="butt" stroke-linejoin="miter" stroke-miterlimit="10" stroke-dasharray="" stroke-dashoffset="0" style="mix-blend-mode: normal"><path d="M-62.57289,426.45506v-465.46547h747.74775v465.46547z" fill="url(#color-1)" stroke-width="0"/><text transform="translate(54.71194,142.57503) scale(1.55961,1.55961)" font-size="40" xml:space="preserve" fill="#5500ff" fill-rule="nonzero" stroke="none" stroke-width="1" stroke-linecap="butt" stroke-linejoin="miter" stroke-miterlimit="10" stroke-dasharray="" stroke-dashoffset="0" font-family="Archivo Black" font-weight="normal" text-anchor="start" style="mix-blend-mode: normal"><tspan x="0" dy="0">Aozora Services</tspan></text><text transform="translate(198.70646,187.13907) scale(0.5,0.5)" font-size="40" xml:space="preserve" fill="#5500ff" fill-rule="nonzero" stroke="none" stroke-width="1" stroke-linecap="butt" stroke-linejoin="miter" stroke-miterlimit="10" stroke-dasharray="" stroke-dashoffset="0" font-family="Archivo Black" font-weight="normal" text-anchor="start" style="mix-blend-mode: normal"><tspan x="0" dy="0"> </tspan></text><path d="M272.64296,193.75737c10.50567,-16.0095 34.1839,-19.03841 52.8868,-6.76528c18.70291,12.27313 25.34807,35.20072 14.8424,51.21021c-10.50567,16.0095 -34.18391,19.03842 -52.8868,6.76529c-18.70291,-12.27313 -25.34807,-35.20072 -14.8424,-51.21022zM291.57723,238.37661c23.22027,15.37863 37.92455,-1.78956 37.92455,-1.78956l-49.93815,-32.77017c0,0 -10.38582,19.72473 12.0136,34.55973zM322.21209,218.97708c2.5295,1.65989 5.73187,1.25023 7.15271,-0.91498c1.42085,-2.16522 0.52211,-5.26608 -2.00737,-6.92596c-2.5295,-1.65989 -5.73187,-1.25023 -7.15271,0.91498c-1.42085,2.16522 -0.52211,5.26608 2.00737,6.92596zM297.50759,202.76561c2.5295,1.65989 5.73187,1.25023 7.15271,-0.91498c1.42085,-2.16522 0.52211,-5.26608 -2.00737,-6.92596c-2.5295,-1.65989 -5.73187,-1.25023 -7.15271,0.91497c-1.42085,2.16522 -0.5221,5.26608 2.00737,6.92596z" fill="#00c7ff" stroke-width="0"/></g></g></svg>