<svg version="1.1" xmlns="http://www.w3.org/2000/svg" xmlns:xlink="http://www.w3.org/1999/xlink" width="711.71171" height="490.99099" viewBox="0,0,711.71171,490.99099"><defs><linearGradient x1="313.57781" y1="-32.25365" x2="313.57781" y2="458.73734" gradientUnits="userSpaceOnUse" id="color-1"><stop offset="0" stop-color="#656565"/><stop offset="1" stop-color="#000000"/></linearGradient></defs><g transform="translate(42.27805,32.25365)"><g data-paper-data="{&quot;isPaintingLayer&quot;:true}" fill-rule="nonzero" stroke="none" stroke-linecap="butt" stroke-linejoin="miter" stroke-miterlimit="10" stroke-dasharray="" stroke-dashoffset="0" style="mix-blend-mode: normal"><g><path d="M-38.27804,458.73734c-2.20914,0 -4,-1.79086 -4,-4v-482.99099c0,-2.20914 1.79086,-4 4,-4h703.71171c2.20914,0 4,1.79086 4,4v482.99099c0,2.20914 -1.79086,4 -4,4z" fill="url(#color-1)" stroke-width="0"/><text transform="translate(297.47748,79.72018) scale(0.73602,0.73602)" font-size="40" xml:space="preserve" fill="#ffffff" fill-rule="nonzero" stroke="none" stroke-width="1" stroke-linecap="butt" stroke-linejoin="miter" stroke-miterlimit="10" stroke-dasharray="" stroke-dashoffset="0" font-family="Playful" font-weight="normal" text-anchor="middle" style="mix-blend-mode: normal"><tspan x="0" dy="0">Moon Browser is a paid </tspan><tspan x="0" dy="46.15px">undetected proxy</tspan><tspan x="0" dy="46.15px">created by Sora</tspan><tspan x="0" dy="46.15px"> </tspan></text><text transform="translate(269.41642,209.20876) scale(0.6027,0.6027)" font-size="40" xml:space="preserve" fill="#ffffff" fill-rule="nonzero" stroke="none" stroke-width="1" stroke-linecap="butt" stroke-linejoin="miter" stroke-miterlimit="10" stroke-dasharray="" stroke-dashoffset="0" font-family="Playful" font-weight="normal" text-anchor="middle" style="mix-blend-mode: normal"><tspan x="0" dy="0">Undetected</tspan><tspan x="0" dy="46.15px"> </tspan><tspan x="0" dy="46.15px">Fast</tspan><tspan x="0" dy="46.15px"> </tspan><tspan x="0" dy="46.15px">Working</tspan></text><path d="M335.45204,198.33761l5.95167,-6.91082l8.01916,7.34001l18.78085,-25.36425l6.41564,6.70623l-24.81516,33.1211z" fill="#5bff00" stroke-width="0"/><path d="M334.44603,254.38866l5.95167,-6.91082l8.01916,7.34002l18.78085,-25.36425l6.41564,6.70623l-24.81516,33.1211z" fill="#5bff00" stroke-width="0"/><path d="M331.93852,311.94122l5.95168,-6.91082l8.01916,7.34001l18.78085,-25.36425l6.41564,6.70623l-24.81516,33.1211z" fill="#5bff00" stroke-width="0"/></g></g></g></svg>