<svg version="1.1" xmlns="http://www.w3.org/2000/svg" xmlns:xlink="http://www.w3.org/1999/xlink" width="711.71171" height="490.99099" viewBox="0,0,711.71171,490.99099"><defs><linearGradient x1="313.57781" y1="-32.25365" x2="313.57781" y2="458.73734" gradientUnits="userSpaceOnUse" id="color-1"><stop offset="0" stop-color="#656565"/><stop offset="1" stop-color="#000000"/></linearGradient><linearGradient x1="313.57781" y1="-32.25365" x2="313.57781" y2="458.73734" gradientUnits="userSpaceOnUse" id="color-2"><stop offset="0" stop-color="#5c0184"/><stop offset="1" stop-color="#000000"/></linearGradient></defs><g transform="translate(42.27805,32.25365)"><g data-paper-data="{&quot;isPaintingLayer&quot;:true}" fill-rule="nonzero" stroke="none" stroke-width="0" stroke-linecap="butt" stroke-linejoin="miter" stroke-miterlimit="10" stroke-dasharray="" stroke-dashoffset="0" style="mix-blend-mode: normal"><path d="M-38.27804,458.73734c-2.20914,0 -4,-1.79086 -4,-4v-482.99099c0,-2.20914 1.79086,-4 4,-4h703.71171c2.20914,0 4,1.79086 4,4v482.99099c0,2.20914 -1.79086,4 -4,4z" fill="url(#color-1)"/><path d="M-38.27804,458.73734c-2.20914,0 -4,-1.79086 -4,-4v-482.99099c0,-2.20914 1.79086,-4 4,-4h703.71171c2.20914,0 4,1.79086 4,4v482.99099c0,2.20914 -1.79086,4 -4,4z" fill="url(#color-2)"/></g></g></svg>