<svg version="1.1" xmlns="http://www.w3.org/2000/svg" xmlns:xlink="http://www.w3.org/1999/xlink" width="757.14892" height="418.55555" viewBox="0,0,757.14892,418.55555"><defs><linearGradient x1="351.69367" y1="-6.36093" x2="351.69367" y2="412.19462" gradientUnits="userSpaceOnUse" id="color-1"><stop offset="0" stop-color="#151515"/><stop offset="1" stop-color="#484848"/></linearGradient></defs><g transform="translate(26.88078,6.36093)"><g data-paper-data="{&quot;isPaintingLayer&quot;:true}" fill-rule="nonzero" stroke-linecap="butt" stroke-linejoin="miter" stroke-miterlimit="10" stroke-dasharray="" stroke-dashoffset="0" style="mix-blend-mode: normal"><path d="M-21.10102,412.19462c-3.19208,0 -5.77976,-2.08795 -5.77976,-4.66357v-409.22841c0,-2.57562 2.58769,-4.66357 5.77976,-4.66357h745.5894c3.19208,0 5.77976,2.08795 5.77976,4.66357v409.22841c0,2.57562 -2.58769,4.66357 -5.77976,4.66357z" fill="url(#color-1)" stroke="none" stroke-width="0"/><text transform="translate(31.14924,332.14357) scale(0.5,0.5)" font-size="40" xml:space="preserve" fill="#ffffff" fill-rule="nonzero" stroke="none" stroke-width="1" stroke-linecap="butt" stroke-linejoin="miter" stroke-miterlimit="10" stroke-dasharray="" stroke-dashoffset="0" font-family="Archivo Black" font-weight="normal" text-anchor="start" style="mix-blend-mode: normal"><tspan x="0" dy="0">2.0</tspan></text><path d="M30.14924,344.14357c-2.20914,0 -4,-1.79086 -4,-4v-35c0,-2.20914 1.79086,-4 4,-4h66c2.20914,0 4,1.79086 4,4v35c0,2.20914 -1.79086,4 -4,4z" fill="none" stroke="#000000" stroke-width="0.5"/></g></g></svg>